# xmcd CD database file
#
# Track frame offsets:
#	150
#	12449
#	24464
#	37588
#	49799
#	66305
#	79144
#	91741
#	104703
#	115967
#	127634
#	139744
#	150269
#	164317
#
# Disc length: 2359 seconds
#
# Revision: 0
# Processed by: cddbd v1.5.1PL0 Copyright (c) Steve Scherf et al.
# Submitted via: CDex 1.51
#
DISCID=a409350e
DTITLE=Merle Haggard - ...again
DYEAR=1900
DGENRE=Country
TTITLE0=The Bottle Let Me Down
TTITLE1=Things Aren't funny Anymore
TTITLE2=The Way I am
TTITLE3=Everybody's had the blues
TTITLE4=Daddy Frank
TTITLE5=Sing me back home
TTITLE6=I'm always on a mountain when I fall
TTITLE7=Misery and Gin
TTITLE8=All my friends are gonna be strangers
TTITLE9=Carolyn
TTITLE10=I take a lot of pride in what I am
TTITLE11=Someday We'll look back
TTITLE12=Always wanting you
TTITLE13=It's been a great afternoon
EXTD=
EXTT0=
EXTT1=
EXTT2=
EXTT3=
EXTT4=
EXTT5=
EXTT6=
EXTT7=
EXTT8=
EXTT9=
EXTT10=
EXTT11=
EXTT12=
EXTT13=
PLAYORDER=
